<svg width="229" height="62" viewBox="0 0 229 62" fill="none" xmlns="http://www.w3.org/2000/svg">
<rect x="0.1" y="0.1" width="228.8" height="61.8" rx="30.9" fill="#98FB4A" stroke="#98FB4A" stroke-width="0.2"/>
<path d="M48.614 37.824C47.414 37.824 46.388 37.614 45.536 37.194C44.696 36.774 44.018 36.228 43.502 35.556C42.986 34.884 42.608 34.158 42.368 33.378C42.128 32.586 42.008 31.824 42.008 31.092V30.696C42.008 29.904 42.128 29.112 42.368 28.32C42.62 27.528 43.004 26.808 43.52 26.16C44.036 25.512 44.708 24.99 45.536 24.594C46.364 24.198 47.354 24 48.506 24C49.682 24 50.69 24.204 51.53 24.612C52.37 25.02 53.036 25.59 53.528 26.322C54.02 27.054 54.32 27.918 54.428 28.914H52.628C52.532 28.17 52.292 27.558 51.908 27.078C51.524 26.586 51.038 26.22 50.45 25.98C49.874 25.74 49.226 25.62 48.506 25.62C47.726 25.62 47.042 25.758 46.454 26.034C45.866 26.298 45.374 26.676 44.978 27.168C44.594 27.648 44.3 28.206 44.096 28.842C43.904 29.478 43.808 30.168 43.808 30.912C43.808 31.62 43.904 32.292 44.096 32.928C44.3 33.564 44.6 34.128 44.996 34.62C45.404 35.112 45.908 35.502 46.508 35.79C47.108 36.066 47.81 36.204 48.614 36.204C49.742 36.204 50.69 35.922 51.458 35.358C52.226 34.794 52.694 33.978 52.862 32.91H54.662C54.542 33.81 54.236 34.632 53.744 35.376C53.264 36.12 52.592 36.714 51.728 37.158C50.876 37.602 49.838 37.824 48.614 37.824ZM61.3926 37.824C60.5526 37.824 59.8146 37.68 59.1786 37.392C58.5426 37.104 58.0026 36.726 57.5586 36.258C57.1266 35.778 56.7966 35.244 56.5686 34.656C56.3526 34.068 56.2446 33.468 56.2446 32.856V32.532C56.2446 31.92 56.3586 31.32 56.5866 30.732C56.8146 30.132 57.1506 29.598 57.5946 29.13C58.0386 28.65 58.5786 28.272 59.2146 27.996C59.8506 27.708 60.5766 27.564 61.3926 27.564C62.2086 27.564 62.9346 27.708 63.5706 27.996C64.2066 28.272 64.7466 28.65 65.1906 29.13C65.6346 29.598 65.9706 30.132 66.1986 30.732C66.4266 31.32 66.5406 31.92 66.5406 32.532V32.856C66.5406 33.468 66.4266 34.068 66.1986 34.656C65.9826 35.244 65.6526 35.778 65.2086 36.258C64.7766 36.726 64.2426 37.104 63.6066 37.392C62.9706 37.68 62.2326 37.824 61.3926 37.824ZM61.3926 36.276C62.1126 36.276 62.7246 36.12 63.2286 35.808C63.7446 35.484 64.1346 35.052 64.3986 34.512C64.6746 33.972 64.8126 33.366 64.8126 32.694C64.8126 32.01 64.6746 31.398 64.3986 30.858C64.1226 30.318 63.7266 29.892 63.2106 29.58C62.7066 29.268 62.1006 29.112 61.3926 29.112C60.6966 29.112 60.0906 29.268 59.5746 29.58C59.0586 29.892 58.6626 30.318 58.3866 30.858C58.1106 31.398 57.9726 32.01 57.9726 32.694C57.9726 33.366 58.1046 33.972 58.3686 34.512C58.6446 35.052 59.0346 35.484 59.5386 35.808C60.0546 36.12 60.6726 36.276 61.3926 36.276ZM69.1287 37.5V27.888H70.4967V32.01H70.2807C70.2807 31.062 70.4067 30.264 70.6587 29.616C70.9227 28.956 71.3187 28.458 71.8467 28.122C72.3747 27.774 73.0407 27.6 73.8447 27.6H73.9167C75.1287 27.6 76.0227 27.978 76.5987 28.734C77.1867 29.49 77.4807 30.582 77.4807 32.01V37.5H75.7527V31.65C75.7527 30.906 75.5427 30.312 75.1227 29.868C74.7027 29.412 74.1267 29.184 73.3947 29.184C72.6387 29.184 72.0267 29.418 71.5587 29.886C71.0907 30.354 70.8567 30.978 70.8567 31.758V37.5H69.1287ZM84.3863 37.608C83.6663 37.608 83.0423 37.506 82.5143 37.302C81.9983 37.098 81.5963 36.75 81.3083 36.258C81.0323 35.754 80.8943 35.076 80.8943 34.224V24.972H82.5503V34.44C82.5503 34.956 82.6883 35.358 82.9643 35.646C83.2523 35.922 83.6543 36.06 84.1703 36.06H85.8623V37.608H84.3863ZM79.2383 29.184V27.888H85.8623V29.184H79.2383ZM94.0852 37.5V34.62H93.7972V31.29C93.7972 30.63 93.6232 30.132 93.2752 29.796C92.9392 29.46 92.4412 29.292 91.7812 29.292C91.4092 29.292 91.0252 29.298 90.6292 29.31C90.2332 29.322 89.8552 29.334 89.4952 29.346C89.1352 29.358 88.8232 29.376 88.5592 29.4V27.888C88.8232 27.864 89.0992 27.846 89.3872 27.834C89.6872 27.81 89.9932 27.798 90.3052 27.798C90.6172 27.786 90.9172 27.78 91.2052 27.78C92.1892 27.78 92.9932 27.9 93.6172 28.14C94.2412 28.368 94.7032 28.746 95.0032 29.274C95.3032 29.802 95.4532 30.516 95.4532 31.416V37.5H94.0852ZM90.9352 37.752C90.2152 37.752 89.5912 37.632 89.0632 37.392C88.5472 37.14 88.1452 36.78 87.8572 36.312C87.5812 35.844 87.4432 35.28 87.4432 34.62C87.4432 33.936 87.5932 33.366 87.8932 32.91C88.2052 32.454 88.6552 32.112 89.2432 31.884C89.8312 31.644 90.5392 31.524 91.3672 31.524H93.9772V32.82H91.2952C90.5992 32.82 90.0652 32.988 89.6932 33.324C89.3212 33.66 89.1352 34.092 89.1352 34.62C89.1352 35.148 89.3212 35.574 89.6932 35.898C90.0652 36.222 90.5992 36.384 91.2952 36.384C91.7032 36.384 92.0932 36.312 92.4652 36.168C92.8372 36.012 93.1432 35.76 93.3832 35.412C93.6352 35.052 93.7732 34.56 93.7972 33.936L94.2652 34.62C94.2052 35.304 94.0372 35.88 93.7612 36.348C93.4972 36.804 93.1252 37.152 92.6452 37.392C92.1772 37.632 91.6072 37.752 90.9352 37.752ZM102.747 37.824C101.919 37.824 101.199 37.68 100.587 37.392C99.9868 37.104 99.4888 36.72 99.0928 36.24C98.6968 35.748 98.3968 35.208 98.1928 34.62C98.0008 34.032 97.9048 33.444 97.9048 32.856V32.532C97.9048 31.92 98.0008 31.32 98.1928 30.732C98.3968 30.144 98.6968 29.616 99.0928 29.148C99.5008 28.668 100.005 28.284 100.605 27.996C101.205 27.708 101.907 27.564 102.711 27.564C103.515 27.564 104.235 27.714 104.871 28.014C105.519 28.314 106.035 28.74 106.419 29.292C106.815 29.832 107.037 30.474 107.085 31.218H105.429C105.345 30.618 105.069 30.12 104.601 29.724C104.133 29.316 103.503 29.112 102.711 29.112C102.027 29.112 101.457 29.268 101.001 29.58C100.545 29.892 100.203 30.318 99.9748 30.858C99.7468 31.398 99.6328 32.01 99.6328 32.694C99.6328 33.354 99.7468 33.96 99.9748 34.512C100.203 35.052 100.545 35.484 101.001 35.808C101.469 36.12 102.051 36.276 102.747 36.276C103.287 36.276 103.755 36.18 104.151 35.988C104.547 35.796 104.865 35.538 105.105 35.214C105.345 34.89 105.489 34.524 105.537 34.116H107.193C107.157 34.872 106.935 35.526 106.527 36.078C106.131 36.63 105.603 37.062 104.943 37.374C104.295 37.674 103.563 37.824 102.747 37.824ZM113.285 37.608C112.565 37.608 111.941 37.506 111.413 37.302C110.897 37.098 110.495 36.75 110.207 36.258C109.931 35.754 109.793 35.076 109.793 34.224V24.972H111.449V34.44C111.449 34.956 111.587 35.358 111.863 35.646C112.151 35.922 112.553 36.06 113.069 36.06H114.761V37.608H113.285ZM108.137 29.184V27.888H114.761V29.184H108.137ZM121.553 37.5V24.36H123.893L127.781 33.126H128.069L131.939 24.36H134.297V37.5H132.533V26.286L132.659 26.322L128.933 34.782H126.773L123.029 26.322L123.173 26.286V37.5H121.553ZM141.945 37.824C141.105 37.824 140.379 37.68 139.767 37.392C139.155 37.104 138.657 36.726 138.273 36.258C137.889 35.778 137.601 35.244 137.409 34.656C137.229 34.068 137.139 33.468 137.139 32.856V32.532C137.139 31.908 137.229 31.302 137.409 30.714C137.601 30.126 137.889 29.598 138.273 29.13C138.657 28.65 139.143 28.272 139.731 27.996C140.331 27.708 141.033 27.564 141.837 27.564C142.881 27.564 143.739 27.792 144.411 28.248C145.095 28.692 145.599 29.268 145.923 29.976C146.259 30.684 146.427 31.44 146.427 32.244V33.018H137.895V31.722H145.167L144.771 32.424C144.771 31.74 144.663 31.152 144.447 30.66C144.231 30.156 143.907 29.766 143.475 29.49C143.043 29.214 142.497 29.076 141.837 29.076C141.153 29.076 140.583 29.232 140.127 29.544C139.683 29.856 139.347 30.282 139.119 30.822C138.903 31.362 138.795 31.986 138.795 32.694C138.795 33.378 138.903 33.996 139.119 34.548C139.347 35.088 139.695 35.52 140.163 35.844C140.631 36.156 141.225 36.312 141.945 36.312C142.701 36.312 143.313 36.144 143.781 35.808C144.261 35.472 144.549 35.082 144.645 34.638H146.265C146.133 35.298 145.869 35.868 145.473 36.348C145.077 36.828 144.579 37.194 143.979 37.446C143.379 37.698 142.701 37.824 141.945 37.824Z" fill="black"/>
<g clip-path="url(#clip0_924_28)">
<path d="M182 31L157 31" stroke="black" stroke-width="2" stroke-linecap="round"/>
<path d="M178.667 35.6666L182.509 31.8249C182.964 31.3693 182.964 30.6306 182.509 30.175L178.667 26.3333" stroke="black" stroke-width="2" stroke-linecap="round"/>
</g>
<defs>
<clipPath id="clip0_924_28">
<rect width="28" height="28" fill="white" transform="translate(160 17)"/>
</clipPath>
</defs>
</svg>
