<svg width="24" height="24" viewBox="0 0 24 24" fill="none" xmlns="http://www.w3.org/2000/svg">
<path fill-rule="evenodd" clip-rule="evenodd" d="M1 2.83898C1 2.35151 1.19365 1.88401 1.53834 1.53932C1.88303 1.19462 2.35053 1.00098 2.838 1.00098H21.16C21.4016 1.00058 21.6409 1.04784 21.8641 1.14005C22.0874 1.23225 22.2903 1.36759 22.4613 1.53832C22.6322 1.70904 22.7677 1.9118 22.8602 2.13499C22.9526 2.35818 23.0001 2.5974 23 2.83898V21.161C23.0003 21.4026 22.9529 21.6419 22.8606 21.8652C22.7683 22.0885 22.6328 22.2914 22.462 22.4623C22.2912 22.6332 22.0884 22.7687 21.8651 22.8612C21.6419 22.9536 21.4026 23.0011 21.161 23.001H2.838C2.59655 23.001 2.35746 22.9534 2.1344 22.861C1.91134 22.7685 1.70867 22.6331 1.53798 22.4623C1.3673 22.2915 1.23193 22.0888 1.13962 21.8657C1.04731 21.6425 0.999869 21.4034 1 21.162V2.83898ZM9.708 9.38898H12.687V10.885C13.117 10.025 14.217 9.25098 15.87 9.25098C19.039 9.25098 19.79 10.964 19.79 14.107V19.929H16.583V14.823C16.583 13.033 16.153 12.023 15.061 12.023C13.546 12.023 12.916 13.112 12.916 14.823V19.929H9.708V9.38898ZM4.208 19.792H7.416V9.25098H4.208V19.792ZM7.875 5.81298C7.88105 6.08765 7.83217 6.36077 7.73124 6.61629C7.63031 6.87182 7.47935 7.10461 7.28723 7.30101C7.09511 7.49741 6.8657 7.65345 6.61246 7.75999C6.35921 7.86652 6.08724 7.9214 5.8125 7.9214C5.53776 7.9214 5.26579 7.86652 5.01255 7.75999C4.7593 7.65345 4.52989 7.49741 4.33777 7.30101C4.14565 7.10461 3.99469 6.87182 3.89376 6.61629C3.79283 6.36077 3.74395 6.08765 3.75 5.81298C3.76187 5.27383 3.98439 4.76077 4.36989 4.38367C4.75539 4.00656 5.27322 3.7954 5.8125 3.7954C6.35178 3.7954 6.86961 4.00656 7.25512 4.38367C7.64062 4.76077 7.86313 5.27383 7.875 5.81298Z" fill="#4E4E4D"/>
</svg>
