<svg width="90" height="29" viewBox="0 0 90 29" fill="none" xmlns="http://www.w3.org/2000/svg">
<path d="M21.9367 26.7493L14.1333 26.6081L8.20796 15.9523L8.01715 26.4974L0.987053 26.3702L1.43227 1.7649L8.46237 1.8921L8.28428 11.7342L14.2271 1.99641L22.0305 2.13761L14.5029 13.9565L21.9367 26.7493ZM26.5934 7.91641C25.6092 7.89861 24.7602 7.53162 24.0465 6.81547C23.3566 6.07629 23.0204 5.22632 23.0377 4.26555C23.0551 3.30478 23.4217 2.47924 24.1374 1.78895C24.877 1.07564 25.7389 0.727904 26.7231 0.745713C27.6839 0.763098 28.5092 1.14136 29.1991 1.88054C29.9128 2.59669 30.261 3.43517 30.2436 4.39594C30.2262 5.35671 29.8477 6.19375 29.1081 6.90706C28.3924 7.59735 27.5542 7.9338 26.5934 7.91641ZM22.9822 26.7682L23.3002 9.19298L29.8031 9.31065L29.485 26.8859L22.9822 26.7682ZM32.2847 26.9366L32.749 1.27669L39.2518 1.39436L38.7875 27.0542L32.2847 26.9366ZM41.5873 27.1049L42.0516 1.44502L48.5544 1.56268L48.0901 27.2225L41.5873 27.1049ZM62.1045 9.89512L68.6074 10.0128L68.2894 27.588L61.7865 27.4704L61.8177 25.748C60.7129 27.2048 59.1294 27.9146 57.0674 27.8773C55.1458 27.8425 53.611 27.1583 52.4632 25.8249C51.339 24.4684 50.8008 22.4778 50.8483 19.8533L51.0321 9.69477L57.535 9.81244L57.3639 19.2679C57.3355 20.838 58.0475 21.6361 59.5006 21.6624C60.2739 21.6764 60.864 21.441 61.2715 20.9561C61.7022 20.4716 61.9254 19.7959 61.9411 18.9288L62.1045 9.89512ZM83.3439 10.2794L89.8467 10.3971L89.5287 27.9723L83.0259 27.8547L83.0545 26.2729C81.9046 27.6351 80.322 28.298 78.3068 28.2616C75.9401 28.2187 74.0227 27.305 72.5546 25.5203C71.0866 23.7357 70.3769 21.5076 70.4252 18.8362C70.4736 16.1647 71.2634 13.9638 72.7951 12.2334C74.3267 10.5031 76.2759 9.65928 78.6426 9.7021C80.6578 9.73856 82.2154 10.4583 83.3152 11.8612L83.3439 10.2794ZM77.7291 21.3242C78.3036 21.9675 79.0592 22.2976 79.9967 22.3146C80.9341 22.3316 81.6896 22.0288 82.2635 21.4062C82.8609 20.7841 83.1679 20.0044 83.1849 19.0671C83.2018 18.1297 82.9232 17.3394 82.3487 16.6961C81.7978 16.0532 81.0537 15.7233 80.1162 15.7063C79.1788 15.6893 78.4117 15.9919 77.8143 16.614C77.2404 17.2366 76.945 18.0165 76.9281 18.9538C76.9111 19.8912 77.1781 20.6813 77.7291 21.3242Z" fill="#F7F7F7"/>
</svg>
