<svg width="99" height="23" viewBox="0 0 99 23" fill="none" xmlns="http://www.w3.org/2000/svg">
<path d="M5.994 18.252C4.458 18.252 3.24 17.82 2.34 16.956C1.44 16.08 0.99 14.82 0.99 13.176V10.224C0.99 8.58 1.44 7.326 2.34 6.462C3.24 5.586 4.458 5.148 5.994 5.148C7.506 5.148 8.67 5.568 9.486 6.408C10.314 7.248 10.728 8.394 10.728 9.846V9.954H8.802V9.792C8.802 8.94 8.568 8.244 8.1 7.704C7.644 7.164 6.942 6.894 5.994 6.894C5.034 6.894 4.284 7.188 3.744 7.776C3.204 8.352 2.934 9.156 2.934 10.188V13.212C2.934 14.232 3.204 15.036 3.744 15.624C4.284 16.212 5.034 16.506 5.994 16.506C6.942 16.506 7.644 16.236 8.1 15.696C8.568 15.144 8.802 14.448 8.802 13.608V13.302H10.728V13.554C10.728 15.006 10.314 16.152 9.486 16.992C8.67 17.832 7.506 18.252 5.994 18.252ZM13.9604 21.6V19.98H18.9104C19.2464 19.98 19.4144 19.8 19.4144 19.44V16.704H19.1264C19.0184 16.944 18.8504 17.178 18.6224 17.406C18.4064 17.622 18.1124 17.802 17.7404 17.946C17.3684 18.09 16.9004 18.162 16.3364 18.162C15.6644 18.162 15.0644 18.012 14.5364 17.712C14.0084 17.412 13.5944 16.986 13.2944 16.434C12.9944 15.882 12.8444 15.228 12.8444 14.472V9.126H14.6984V14.328C14.6984 15.096 14.8904 15.666 15.2744 16.038C15.6584 16.398 16.1924 16.578 16.8764 16.578C17.6324 16.578 18.2384 16.326 18.6944 15.822C19.1624 15.318 19.3964 14.586 19.3964 13.626V9.126H21.2504V19.818C21.2504 20.358 21.0884 20.79 20.7644 21.114C20.4524 21.438 20.0204 21.6 19.4684 21.6H13.9604ZM29.121 18.252C28.257 18.252 27.591 18.096 27.123 17.784C26.667 17.472 26.325 17.124 26.097 16.74H25.809V18H23.991V5.4H25.845V10.332H26.133C26.277 10.092 26.469 9.864 26.709 9.648C26.949 9.42 27.267 9.234 27.663 9.09C28.059 8.946 28.545 8.874 29.121 8.874C29.865 8.874 30.549 9.054 31.173 9.414C31.797 9.774 32.295 10.296 32.667 10.98C33.039 11.664 33.225 12.48 33.225 13.428V13.698C33.225 14.658 33.033 15.48 32.649 16.164C32.277 16.836 31.779 17.352 31.155 17.712C30.543 18.072 29.865 18.252 29.121 18.252ZM28.581 16.632C29.385 16.632 30.045 16.374 30.561 15.858C31.089 15.342 31.353 14.604 31.353 13.644V13.482C31.353 12.534 31.095 11.802 30.579 11.286C30.063 10.77 29.397 10.512 28.581 10.512C27.789 10.512 27.129 10.77 26.601 11.286C26.085 11.802 25.827 12.534 25.827 13.482V13.644C25.827 14.604 26.085 15.342 26.601 15.858C27.129 16.374 27.789 16.632 28.581 16.632ZM39.5903 18.252C38.6903 18.252 37.9043 18.066 37.2323 17.694C36.5603 17.31 36.0323 16.776 35.6483 16.092C35.2763 15.396 35.0903 14.592 35.0903 13.68V13.464C35.0903 12.54 35.2763 11.736 35.6483 11.052C36.0203 10.356 36.5363 9.822 37.1963 9.45C37.8683 9.066 38.6423 8.874 39.5183 8.874C40.3703 8.874 41.1143 9.066 41.7503 9.45C42.3983 9.822 42.9023 10.344 43.2623 11.016C43.6223 11.688 43.8023 12.474 43.8023 13.374V14.076H36.9803C37.0043 14.856 37.2623 15.48 37.7543 15.948C38.2583 16.404 38.8823 16.632 39.6263 16.632C40.3223 16.632 40.8443 16.476 41.1923 16.164C41.5523 15.852 41.8283 15.492 42.0203 15.084L43.5503 15.876C43.3823 16.212 43.1363 16.566 42.8123 16.938C42.5003 17.31 42.0863 17.622 41.5703 17.874C41.0543 18.126 40.3943 18.252 39.5903 18.252ZM36.9983 12.654H41.9123C41.8643 11.982 41.6243 11.46 41.1923 11.088C40.7603 10.704 40.1963 10.512 39.5003 10.512C38.8043 10.512 38.2343 10.704 37.7903 11.088C37.3583 11.46 37.0943 11.982 36.9983 12.654ZM46.034 18V9.126H47.852V10.17H48.14C48.284 9.798 48.512 9.528 48.824 9.36C49.148 9.18 49.544 9.09 50.012 9.09H51.074V10.764H49.94C49.34 10.764 48.848 10.932 48.464 11.268C48.08 11.592 47.888 12.096 47.888 12.78V18H46.034ZM52.941 18V5.4H54.885V10.638H55.173L59.871 5.4H62.409L56.721 11.61L62.607 18H59.997L55.173 12.654H54.885V18H52.941ZM64.1219 18V9.126H65.9759V18H64.1219ZM65.0579 7.92C64.6979 7.92 64.3919 7.806 64.1399 7.578C63.8999 7.338 63.7799 7.032 63.7799 6.66C63.7799 6.288 63.8999 5.988 64.1399 5.76C64.3919 5.52 64.6979 5.4 65.0579 5.4C65.4299 5.4 65.7359 5.52 65.9759 5.76C66.2159 5.988 66.3359 6.288 66.3359 6.66C66.3359 7.032 66.2159 7.338 65.9759 7.578C65.7359 7.806 65.4299 7.92 65.0579 7.92ZM68.7274 18V5.4H70.5814V18H68.7274ZM73.3328 18V5.4H75.1868V18H73.3328ZM81.3403 18.162C80.6683 18.162 80.0683 18.012 79.5403 17.712C79.0123 17.412 78.5983 16.986 78.2983 16.434C77.9983 15.882 77.8483 15.222 77.8483 14.454V9.126H79.7023V14.328C79.7023 15.096 79.8943 15.666 80.2783 16.038C80.6623 16.398 81.1963 16.578 81.8803 16.578C82.6363 16.578 83.2423 16.326 83.6983 15.822C84.1663 15.306 84.4003 14.568 84.4003 13.608V9.126H86.2543V18H84.4363V16.668H84.1483C83.9803 17.028 83.6803 17.37 83.2483 17.694C82.8163 18.006 82.1803 18.162 81.3403 18.162ZM91.749 18.252C91.113 18.252 90.543 18.144 90.039 17.928C89.547 17.712 89.151 17.394 88.851 16.974C88.563 16.554 88.419 16.044 88.419 15.444C88.419 14.832 88.563 14.328 88.851 13.932C89.151 13.524 89.553 13.218 90.057 13.014C90.573 12.81 91.155 12.708 91.803 12.708H94.503V12.132C94.503 11.616 94.347 11.202 94.035 10.89C93.723 10.578 93.243 10.422 92.595 10.422C91.959 10.422 91.473 10.572 91.137 10.872C90.801 11.172 90.579 11.562 90.471 12.042L88.743 11.484C88.887 11.004 89.115 10.572 89.427 10.188C89.751 9.792 90.177 9.474 90.705 9.234C91.233 8.994 91.869 8.874 92.613 8.874C93.765 8.874 94.671 9.168 95.331 9.756C95.991 10.344 96.321 11.178 96.321 12.258V15.912C96.321 16.272 96.489 16.452 96.825 16.452H97.581V18H96.195C95.775 18 95.433 17.892 95.169 17.676C94.905 17.46 94.773 17.166 94.773 16.794V16.74H94.503C94.407 16.92 94.263 17.13 94.071 17.37C93.879 17.61 93.597 17.82 93.225 18C92.853 18.168 92.361 18.252 91.749 18.252ZM92.019 16.722C92.763 16.722 93.363 16.512 93.819 16.092C94.275 15.66 94.503 15.072 94.503 14.328V14.148H91.911C91.419 14.148 91.023 14.256 90.723 14.472C90.423 14.676 90.273 14.982 90.273 15.39C90.273 15.798 90.429 16.122 90.741 16.362C91.053 16.602 91.479 16.722 92.019 16.722Z" fill="white"/>
<path d="M16.4998 11.4999L95 17L85.3966 16.1489L1.69727 8.05127L16.4998 11.4999Z" fill="#98FB4A"/>
</svg>
