<svg width="25" height="25" viewBox="0 0 25 25" fill="none" xmlns="http://www.w3.org/2000/svg">
<path d="M12.2793 13.0122C12.8316 13.0122 13.2793 12.5645 13.2793 12.0122C13.2793 11.4599 12.8316 11.0122 12.2793 11.0122C11.727 11.0122 11.2793 11.4599 11.2793 12.0122C11.2793 12.5645 11.727 13.0122 12.2793 13.0122Z" stroke="#C5C5C5" stroke-linecap="round" stroke-linejoin="round"/>
<path d="M19.2793 13.0122C19.8316 13.0122 20.2793 12.5645 20.2793 12.0122C20.2793 11.4599 19.8316 11.0122 19.2793 11.0122C18.727 11.0122 18.2793 11.4599 18.2793 12.0122C18.2793 12.5645 18.727 13.0122 19.2793 13.0122Z" stroke="#C5C5C5" stroke-linecap="round" stroke-linejoin="round"/>
<path d="M5.2793 13.0122C5.83158 13.0122 6.2793 12.5645 6.2793 12.0122C6.2793 11.4599 5.83158 11.0122 5.2793 11.0122C4.72701 11.0122 4.2793 11.4599 4.2793 12.0122C4.2793 12.5645 4.72701 13.0122 5.2793 13.0122Z" stroke="#C5C5C5" stroke-linecap="round" stroke-linejoin="round"/>
</svg>
