<svg width="61" height="60" viewBox="0 0 61 60" fill="none" xmlns="http://www.w3.org/2000/svg">
<circle cx="30.2832" cy="30" r="29" fill="#131313" stroke="#131313" stroke-width="2"/>
<path d="M27.2832 36V23L39.2832 21V34" stroke="#6F6F6F" stroke-width="1.5" stroke-linecap="round" stroke-linejoin="round" id="music"/>
<path d="M24.2832 39C25.9401 39 27.2832 37.6569 27.2832 36C27.2832 34.3431 25.9401 33 24.2832 33C22.6263 33 21.2832 34.3431 21.2832 36C21.2832 37.6569 22.6263 39 24.2832 39Z" stroke="#6F6F6F" stroke-width="1.5" stroke-linecap="round" stroke-linejoin="round" id="music"/>
<path d="M36.2832 37C37.9401 37 39.2832 35.6569 39.2832 34C39.2832 32.3431 37.9401 31 36.2832 31C34.6263 31 33.2832 32.3431 33.2832 34C33.2832 35.6569 34.6263 37 36.2832 37Z" stroke="#6F6F6F" stroke-width="1.5" stroke-linecap="round" stroke-linejoin="round" id="music"/>
</svg>
