<svg width="24" height="24" viewBox="0 0 24 24" fill="none" xmlns="http://www.w3.org/2000/svg">
<path d="M6 19C4.75718 18.0693 3.74851 16.8617 3.05414 15.4729C2.35978 14.0842 1.99884 12.5527 2 11C2 5.477 6.477 1 12 1C17.523 1 22 5.477 22 11C22.0012 12.5527 21.6402 14.0842 20.9459 15.4729C20.2515 16.8617 19.2428 18.0693 18 19" stroke="#98FB4A" stroke-linecap="round" stroke-linejoin="round"/>
<path d="M6 19C4.75718 18.0693 3.74851 16.8617 3.05414 15.4729C2.35978 14.0842 1.99884 12.5527 2 11C2 5.477 6.477 1 12 1C17.523 1 22 5.477 22 11C22.0012 12.5527 21.6402 14.0842 20.9459 15.4729C20.2515 16.8617 19.2428 18.0693 18 19" stroke="#98FB4A" stroke-linecap="round" stroke-linejoin="round"/>
<path d="M7.528 14.9999C6.75579 14.1366 6.24997 13.0682 6.07158 11.9238C5.8932 10.7793 6.04989 9.60772 6.52274 8.55036C6.99558 7.493 7.76437 6.5951 8.73629 5.96506C9.70822 5.33501 10.8417 4.99976 12 4.99976C13.1583 4.99976 14.2918 5.33501 15.2637 5.96506C16.2356 6.5951 17.0044 7.493 17.4773 8.55036C17.9501 9.60772 18.1068 10.7793 17.9284 11.9238C17.75 13.0682 17.2442 14.1366 16.472 14.9999" stroke="#98FB4A" stroke-linecap="round" stroke-linejoin="round"/>
<path d="M11.9998 13C12.5302 13 13.039 12.7893 13.414 12.4142C13.7891 12.0391 13.9998 11.5304 13.9998 11C13.9998 10.4696 13.7891 9.96086 13.414 9.58579C13.039 9.21071 12.5302 9 11.9998 9C11.4694 9 10.9607 9.21071 10.5856 9.58579C10.2105 9.96086 9.99981 10.4696 9.99981 11C9.99981 11.5304 10.2105 12.0391 10.5856 12.4142C10.9607 12.7893 11.4694 13 11.9998 13ZM10.0758 16.283L10.8908 15.74C11.2193 15.5211 11.6051 15.4044 11.9998 15.4044C12.3945 15.4044 12.7804 15.5211 13.1088 15.74L13.9238 16.283C14.2443 16.4968 14.4963 16.7986 14.6494 17.1522C14.8025 17.5057 14.8502 17.896 14.7868 18.276L14.2778 21.329C14.2 21.7958 13.9591 22.2199 13.598 22.5259C13.2369 22.8318 12.7791 22.9998 12.3058 23H11.6938C11.2204 23.0001 10.7623 22.8322 10.401 22.5262C10.0397 22.2202 9.79869 21.796 9.72081 21.329L9.21281 18.276C9.14941 17.896 9.19713 17.5057 9.35022 17.1522C9.50332 16.7986 9.75528 16.4968 10.0758 16.283V16.283Z" stroke="#98FB4A" stroke-linecap="round" stroke-linejoin="round"/>
</svg>
