<svg width="125" height="125" viewBox="0 0 125 125" fill="none" xmlns="http://www.w3.org/2000/svg">
<g opacity="0.7" filter="url(#filter0_f_1005_297)">
<circle cx="62.5" cy="62.5" r="12.5" fill="#98FB4A"/>
</g>
<circle cx="62" cy="62" r="29.5" fill="#131313" stroke="#191919"/>
<path d="M56 69C54.7572 68.0693 53.7485 66.8617 53.0541 65.4729C52.3598 64.0842 51.9988 62.5527 52 61C52 55.477 56.477 51 62 51C67.523 51 72 55.477 72 61C72.0012 62.5527 71.6402 64.0842 70.9459 65.4729C70.2515 66.8617 69.2428 68.0693 68 69" stroke="#98FB4A" stroke-width="1.5" stroke-linecap="round" stroke-linejoin="round"/>
<path d="M56 69C54.7572 68.0693 53.7485 66.8617 53.0541 65.4729C52.3598 64.0842 51.9988 62.5527 52 61C52 55.477 56.477 51 62 51C67.523 51 72 55.477 72 61C72.0012 62.5527 71.6402 64.0842 70.9459 65.4729C70.2515 66.8617 69.2428 68.0693 68 69" stroke="#98FB4A" stroke-width="1.3" stroke-linecap="round" stroke-linejoin="round"/>
<path d="M57.528 64.9999C56.7558 64.1366 56.25 63.0682 56.0716 61.9238C55.8932 60.7793 56.0499 59.6077 56.5227 58.5504C56.9956 57.493 57.7644 56.5951 58.7363 55.9651C59.7082 55.335 60.8417 54.9998 62 54.9998C63.1583 54.9998 64.2918 55.335 65.2637 55.9651C66.2356 56.5951 67.0044 57.493 67.4773 58.5504C67.9501 59.6077 68.1068 60.7793 67.9284 61.9238C67.75 63.0682 67.2442 64.1366 66.472 64.9999" stroke="#98FB4A" stroke-width="1.3" stroke-linecap="round" stroke-linejoin="round"/>
<path d="M61.9998 63C62.5302 63 63.039 62.7893 63.414 62.4142C63.7891 62.0391 63.9998 61.5304 63.9998 61C63.9998 60.4696 63.7891 59.9609 63.414 59.5858C63.039 59.2107 62.5302 59 61.9998 59C61.4694 59 60.9607 59.2107 60.5856 59.5858C60.2105 59.9609 59.9998 60.4696 59.9998 61C59.9998 61.5304 60.2105 62.0391 60.5856 62.4142C60.9607 62.7893 61.4694 63 61.9998 63ZM60.0758 66.283L60.8908 65.74C61.2193 65.5211 61.6051 65.4044 61.9998 65.4044C62.3945 65.4044 62.7804 65.5211 63.1088 65.74L63.9238 66.283C64.2443 66.4968 64.4963 66.7986 64.6494 67.1522C64.8025 67.5057 64.8502 67.896 64.7868 68.276L64.2778 71.329C64.2 71.7958 63.9591 72.2199 63.598 72.5259C63.2369 72.8318 62.7791 72.9998 62.3058 73H61.6938C61.2204 73.0001 60.7623 72.8322 60.401 72.5262C60.0397 72.2202 59.7987 71.796 59.7208 71.329L59.2128 68.276C59.1494 67.896 59.1971 67.5057 59.3502 67.1522C59.5033 66.7986 59.7553 66.4968 60.0758 66.283V66.283Z" stroke="#98FB4A" stroke-width="1.3" stroke-linecap="round" stroke-linejoin="round"/>
<defs>
<filter id="filter0_f_1005_297" x="0" y="0" width="125" height="125" filterUnits="userSpaceOnUse" color-interpolation-filters="sRGB">
<feFlood flood-opacity="0" result="BackgroundImageFix"/>
<feBlend mode="normal" in="SourceGraphic" in2="BackgroundImageFix" result="shape"/>
<feGaussianBlur stdDeviation="25" result="effect1_foregroundBlur_1005_297"/>
</filter>
</defs>
</svg>
