<svg width="80" height="79" viewBox="0 0 80 79" fill="none" xmlns="http://www.w3.org/2000/svg">
<path d="M39.4388 55.2454C39.6829 55.489 40.0787 55.489 40.3227 55.2454L44.3002 51.2763C44.5442 51.0327 44.5442 50.6378 44.3002 50.3942C44.0562 50.1507 43.6604 50.1507 43.4163 50.3942L39.8807 53.9224L36.3452 50.3942C36.1012 50.1507 35.7054 50.1507 35.4613 50.3942C35.2173 50.6378 35.2173 51.0327 35.4613 51.2763L39.4388 55.2454ZM39.2557 25.1807V54.8043H40.5057V25.1807H39.2557Z" fill="#3A3A3A"/>
<path d="M39.4388 55.2454C39.6829 55.489 40.0787 55.489 40.3227 55.2454L44.3002 51.2763C44.5442 51.0327 44.5442 50.6378 44.3002 50.3942C44.0562 50.1507 43.6604 50.1507 43.4163 50.3942L39.8807 53.9224L36.3452 50.3942C36.1012 50.1507 35.7054 50.1507 35.4613 50.3942C35.2173 50.6378 35.2173 51.0327 35.4613 51.2763L39.4388 55.2454ZM39.2557 25.1807V54.8043H40.5057V25.1807H39.2557Z" fill="#3A3A3A"/>
<path d="M4.38683 40.7325C5.04758 40.7325 5.58323 40.2352 5.58323 39.6216C5.58323 39.0081 5.04758 38.5107 4.38683 38.5107C3.72608 38.5107 3.19043 39.0081 3.19043 39.6216C3.19043 40.2352 3.72608 40.7325 4.38683 40.7325Z" fill="#98FB4A"/>
<path d="M75.3741 40.7325C76.0349 40.7325 76.5705 40.2352 76.5705 39.6216C76.5705 39.0081 76.0349 38.5107 75.3741 38.5107C74.7134 38.5107 74.1777 39.0081 74.1777 39.6216C74.1777 40.2352 74.7134 40.7325 75.3741 40.7325Z" fill="#98FB4A"/>
<path d="M2.67385 52.8532C2.48512 52.3436 2.44504 51.868 2.55362 51.4262C2.66414 50.9897 2.90409 50.6311 3.27347 50.3503L3.86967 50.8578C3.27663 51.2855 3.12071 51.879 3.40188 52.6382C3.54055 53.0126 3.72319 53.2742 3.94982 53.4228C4.18174 53.5696 4.42734 53.6017 4.68662 53.5189C4.95118 53.4345 5.11301 53.2723 5.17211 53.0324C5.23121 52.7926 5.24913 52.4176 5.22589 51.9075C5.21523 51.6551 5.20892 51.4622 5.20695 51.3292C5.21028 51.1944 5.22322 51.0216 5.24577 50.8109C5.27552 50.6036 5.32166 50.4406 5.38417 50.3218C5.45196 50.2013 5.55174 50.0793 5.68352 49.9558C5.81722 49.8376 5.98461 49.7463 6.18567 49.6821C6.66718 49.5283 7.10978 49.5731 7.51347 49.8164C7.92246 50.0579 8.21554 50.4179 8.39271 50.8963C8.55254 51.3279 8.58012 51.7378 8.47537 52.126C8.37254 52.5193 8.16842 52.855 7.86302 53.1327L7.28053 52.6383C7.76532 52.2219 7.89795 51.7173 7.6784 51.1244C7.56862 50.828 7.40596 50.6124 7.1904 50.4778C6.97483 50.3431 6.74007 50.3162 6.48608 50.3974C6.24268 50.4751 6.08927 50.62 6.02582 50.8321C5.96239 51.0444 5.93988 51.383 5.95831 51.8481C5.96653 52.0142 5.97162 52.1317 5.97357 52.2008C5.97551 52.27 5.9741 52.3781 5.96933 52.5249C5.96649 52.677 5.96076 52.7894 5.95212 52.8619C5.94348 52.9345 5.92932 53.032 5.90963 53.1546C5.89187 53.2824 5.86617 53.3807 5.83251 53.4496C5.79886 53.5185 5.75486 53.5994 5.70052 53.6924C5.65341 53.7888 5.59595 53.8653 5.52813 53.9219C5.46032 53.9784 5.37735 54.034 5.27922 54.0885C5.18832 54.1467 5.08467 54.1943 4.96826 54.2315C4.48146 54.3869 4.02803 54.3369 3.60798 54.0814C3.19322 53.8242 2.88184 53.4149 2.67385 52.8532Z" fill="#3A3A3A"/>
<path d="M6.99758 61.0857C6.48813 60.3656 6.31565 59.6182 6.48014 58.8436C6.64784 58.0736 7.09432 57.4674 7.81957 57.025C8.54482 56.5826 9.32132 56.4429 10.1491 56.6058C10.98 56.7732 11.6502 57.217 12.1597 57.9371C12.4672 58.3719 12.6402 58.8369 12.6785 59.3323C12.7199 59.832 12.6279 60.2966 12.4023 60.726L11.6789 60.3796C11.8577 60.076 11.9316 59.7392 11.9005 59.3692C11.8773 59.0007 11.7504 58.6535 11.5197 58.3274C11.132 57.7794 10.63 57.4438 10.0135 57.3206C9.40024 57.2019 8.81632 57.3117 8.26173 57.65C7.71187 57.9854 7.37383 58.438 7.2476 59.0077C7.12459 59.5819 7.25692 60.1431 7.64462 60.6911C7.87531 61.0171 8.16576 61.2646 8.51599 61.4335C8.87415 61.6041 9.23632 61.6749 9.60265 61.646L9.6649 62.3957C9.15415 62.4219 8.65765 62.3196 8.17534 62.0886C7.69776 61.8548 7.30518 61.5205 6.99758 61.0857Z" fill="#3A3A3A"/>
<path d="M14.5178 68.9021L15.0585 66.46L14.0011 65.5828L12.4544 67.1903L11.8584 66.696L15.8986 62.4971L17.6928 63.9856C18.0773 64.3045 18.2831 64.7054 18.3103 65.1881C18.3413 65.6669 18.1836 66.0862 17.8374 66.4461C17.5757 66.718 17.2496 66.8933 16.859 66.972C16.4726 67.0541 16.0985 67.0278 15.7366 66.893L15.1779 69.4497L14.5178 68.9021ZM15.9924 63.5133L14.486 65.079L15.6843 66.073C15.9065 66.2573 16.1676 66.3372 16.4676 66.3129C16.7757 66.2881 17.0336 66.1677 17.2414 65.9517C17.4492 65.7357 17.5471 65.4863 17.5353 65.2032C17.5277 64.9236 17.4129 64.6917 17.1907 64.5074L15.9924 63.5133Z" fill="#3A3A3A"/>
<path d="M24.3199 73.8042C23.5107 74.0723 22.7241 74.0267 21.9602 73.6675C21.1964 73.3084 20.6913 72.7466 20.4451 71.9823C20.199 71.218 20.2764 70.4683 20.6774 69.733C21.0811 68.9928 21.6861 68.4911 22.4926 68.228C23.3018 67.9599 24.0884 68.0055 24.8523 68.3647C25.6161 68.7239 26.1212 69.2856 26.3674 70.0499C26.6213 70.8116 26.5464 71.5626 26.1427 72.3028C25.7417 73.038 25.1341 73.5386 24.3199 73.8042ZM21.1786 71.749C21.3634 72.3131 21.7448 72.7311 22.3227 73.0029C22.9007 73.2746 23.4867 73.3115 24.0808 73.1137C24.6826 72.9133 25.1362 72.5331 25.4416 71.9731C25.7497 71.4083 25.8113 70.8438 25.6265 70.2797C25.4493 69.7131 25.0717 69.2938 24.4937 69.0221C23.9158 68.7503 23.326 68.7147 22.7241 68.915C22.1301 69.1129 21.679 69.4943 21.3709 70.0591C21.0655 70.6191 21.0014 71.1824 21.1786 71.749Z" fill="#3A3A3A"/>
<path d="M30.3029 75.7416L32.7623 76.2743L32.5839 76.9841L29.3672 76.2875L30.7857 70.6411L31.543 70.8051L30.3029 75.7416Z" fill="#3A3A3A"/>
<path d="M38.2932 76.8154L40.8094 76.864L40.793 77.5957L37.502 77.532L37.6325 71.7124L38.4074 71.7274L38.2932 76.8154Z" fill="#3A3A3A"/>
<path d="M51.9946 69.5479C52.7379 69.2679 53.467 69.295 54.182 69.6293C54.9 69.9566 55.4223 70.4937 55.7487 71.2407C56.0751 71.9877 56.1046 72.7135 55.8374 73.4178C55.573 74.1151 55.0693 74.6037 54.326 74.8837L52.1976 75.6855L49.8662 70.3496L51.9946 69.5479ZM54.033 74.213C54.5891 74.0035 54.9606 73.6416 55.1475 73.1273C55.3344 72.613 55.3035 72.0713 55.0548 71.5021C54.8061 70.933 54.4218 70.5244 53.9019 70.2764C53.3819 70.0284 52.8438 70.0092 52.2877 70.2186L50.8844 70.7473L52.6296 74.7416L54.033 74.213Z" fill="#3A3A3A"/>
<path d="M65.1796 67.7863C65.0809 68.5781 64.6884 69.2194 64.002 69.7102C63.3156 70.201 62.5475 70.3896 61.6979 70.276C60.8483 70.1623 60.156 69.783 59.6212 69.1382C59.0828 68.489 58.8646 67.7706 58.9669 66.9832C59.0656 66.1914 59.4581 65.5501 60.1445 65.0593C60.8309 64.5685 61.5989 64.3799 62.4486 64.4934C63.2992 64.5996 63.9937 64.9773 64.5321 65.6265C65.067 66.2714 65.2829 66.9913 65.1796 67.7863ZM61.7967 69.5623C62.4252 69.6436 62.9992 69.4986 63.5184 69.1273C64.0378 68.7559 64.3332 68.2793 64.4046 67.6975C64.477 67.1083 64.3095 66.5681 63.9022 66.0769C63.4913 65.5815 62.9715 65.2932 62.343 65.2119C61.7155 65.1232 61.142 65.2645 60.6227 65.6358C60.1034 66.0072 59.8075 66.4875 59.7351 67.0767C59.6637 67.6585 59.8334 68.1971 60.2444 68.6925C60.6517 69.1836 61.1691 69.4736 61.7967 69.5623Z" fill="#3A3A3A"/>
<path d="M70.4114 63.5429L64.5381 61.6315L65.0371 60.9864L69.8426 62.5947L66.7175 58.8141L67.1962 58.1953L72.0526 59.7378L68.8765 56.0231L69.3755 55.3779L73.2019 59.9356L72.652 60.6465L67.9337 59.1562L70.9614 62.832L70.4114 63.5429Z" fill="#3A3A3A"/>
<path d="M71.6211 49.5837L71.8977 48.8613L77.4358 50.6898L77.2127 51.2723L72.0041 52.7027L76.1418 54.0688L75.8652 54.7912L70.3271 52.9628L70.5502 52.3802L75.7509 50.9473L71.6211 49.5837Z" fill="#3A3A3A"/>
<path d="M8.09674 28.1499C7.9102 28.6603 7.62877 29.0585 7.25244 29.3444C6.87801 29.6251 6.45275 29.77 5.97669 29.779L5.84046 29.036C6.58965 29.0397 7.1032 28.6613 7.3811 27.9008C7.51814 27.5259 7.5462 27.2146 7.46527 26.9671C7.37906 26.7179 7.20649 26.5513 6.94754 26.4676C6.6833 26.3821 6.44896 26.4169 6.24451 26.572C6.04007 26.7272 5.77916 27.0127 5.46178 27.4283C5.30405 27.6335 5.18215 27.7892 5.0961 27.8953C5.00476 27.9997 4.88085 28.1285 4.7244 28.2818C4.56455 28.428 4.4209 28.5301 4.29341 28.5879C4.16065 28.6439 4.00166 28.6827 3.81648 28.7044C3.6332 28.7208 3.44114 28.6965 3.24032 28.6315C2.75942 28.4759 2.43983 28.1861 2.28156 27.7621C2.11801 27.3365 2.12379 26.884 2.2989 26.4049C2.45689 25.9726 2.70491 25.6335 3.04298 25.3876C3.38295 25.1365 3.76476 24.9892 4.18841 24.9458L4.32242 25.6706C3.66602 25.7202 3.22933 26.042 3.01234 26.6357C2.90384 26.9326 2.89027 27.1961 2.97162 27.4263C3.05297 27.6565 3.22048 27.8126 3.47415 27.8947C3.71724 27.9733 3.9336 27.9472 4.12325 27.8164C4.3129 27.6856 4.55351 27.4315 4.84509 27.054C4.94785 26.9184 5.02122 26.8228 5.0652 26.767C5.10918 26.7114 5.18139 26.627 5.28182 26.5139C5.38416 26.3956 5.4626 26.3103 5.51715 26.2581C5.5717 26.2059 5.64707 26.137 5.74327 26.0517C5.84137 25.9612 5.92636 25.8984 5.99825 25.8634C6.07013 25.8284 6.15807 25.7899 6.26209 25.7478C6.36272 25.6988 6.45839 25.6715 6.54907 25.6659C6.63976 25.6604 6.74176 25.6642 6.85507 25.6776C6.965 25.6841 7.0781 25.7061 7.19436 25.7437C7.68055 25.901 8.0052 26.2012 8.16833 26.6442C8.32617 27.0855 8.30231 27.5874 8.09674 28.1499Z" fill="#3A3A3A"/>
<path d="M12.029 21.0643C11.5241 21.7877 10.8585 22.2325 10.0323 22.3991C9.2093 22.5611 8.43655 22.4187 7.71393 21.9721C6.99132 21.5255 6.54561 20.9146 6.3768 20.1395C6.21116 19.3599 6.38081 18.6085 6.88574 17.8852C7.1906 17.4486 7.57869 17.1153 8.04999 16.8857C8.52447 16.6516 9.01739 16.546 9.52864 16.569L9.4758 17.3275C9.10655 17.2946 8.74639 17.3651 8.3953 17.5388C8.04263 17.7049 7.75198 17.9518 7.52333 18.2793C7.13908 18.8297 7.00888 19.3939 7.13274 19.9719C7.25978 20.5454 7.59959 21.0028 8.15216 21.3443C8.70005 21.683 9.2788 21.7933 9.88855 21.6753C10.5015 21.5527 11.0001 21.2163 11.3843 20.6658C11.613 20.3384 11.7406 19.9908 11.7675 19.6231C11.7927 19.248 11.7183 18.9091 11.5444 18.6062L12.2561 18.2549C12.4848 18.6828 12.5815 19.1495 12.5462 19.6552C12.5062 20.1579 12.3338 20.6277 12.029 21.0643Z" fill="#3A3A3A"/>
<path d="M18.6062 14.304L16.0696 13.5274L15.018 14.4114L16.5541 16.0292L15.9613 16.5275L11.9492 12.3019L13.7337 10.8017C14.1161 10.4802 14.5656 10.334 15.0821 10.363C15.5946 10.3879 16.023 10.5815 16.3668 10.9437C16.6266 11.2173 16.7765 11.5401 16.8162 11.9119C16.8603 12.2801 16.7902 12.6248 16.6062 12.9459L19.2626 13.7521L18.6062 14.304ZM13.0406 12.3288L14.5366 13.9043L15.7283 12.9024C15.9492 12.7167 16.0636 12.4831 16.0714 12.2016C16.0796 11.9124 15.9805 11.6592 15.7741 11.4419C15.5678 11.2246 15.3134 11.1056 15.011 11.0848C14.7129 11.0605 14.4533 11.1412 14.2324 11.3269L13.0406 12.3288Z" fill="#3A3A3A"/>
<path d="M26.5903 9.01338C26.3425 9.78192 25.8376 10.3477 25.0756 10.7109C24.3135 11.0739 23.53 11.122 22.725 10.8552C21.92 10.5883 21.319 10.0861 20.9221 9.34859C20.5226 8.60615 20.448 7.85317 20.6984 7.08951C20.9463 6.32096 21.4511 5.75514 22.2132 5.39204C22.9752 5.02894 23.7587 4.98083 24.5638 5.24772C25.3712 5.50733 25.9746 6.00833 26.3741 6.75072C26.771 7.48822 26.8431 8.24244 26.5903 9.01338ZM22.9579 10.1643C23.5539 10.359 24.1403 10.3189 24.7168 10.0441C25.2933 9.76945 25.6721 9.34967 25.8531 8.78469C26.0365 8.21256 25.977 7.64564 25.6748 7.08396C25.3698 6.5174 24.9193 6.13681 24.3233 5.94218C23.7297 5.74027 23.1445 5.77668 22.568 6.05139C21.9915 6.32611 21.6115 6.74956 21.4281 7.32173C21.2471 7.88663 21.3091 8.45239 21.6139 9.01895C21.9163 9.5806 22.3642 9.96237 22.9579 10.1643Z" fill="#3A3A3A"/>
<path d="M31.549 7.68741L34.007 7.14793L34.183 7.8583L30.9682 8.56394L29.5674 2.91321L30.3243 2.74707L31.549 7.68741Z" fill="#3A3A3A"/>
<path d="M38.5672 6.79456L41.0834 6.74523L41.0996 7.47684L37.8086 7.54137L37.6797 1.72174L38.4545 1.70654L38.5672 6.79456Z" fill="#3A3A3A"/>
<path d="M54.5446 4.40051C55.2866 4.68378 55.7895 5.17823 56.0533 5.88386C56.3244 6.58638 56.2987 7.31194 55.9758 8.06054C55.6531 8.80912 55.1333 9.34906 54.4163 9.68028C53.7068 10.0084 52.9811 10.0309 52.2391 9.74764L50.1143 8.93652L52.4198 3.58936L54.5446 4.40051ZM52.5289 9.07539C53.0841 9.28736 53.6205 9.26973 54.138 9.0225C54.6555 8.77527 55.0373 8.36647 55.2832 7.7961C55.5291 7.22573 55.5579 6.68224 55.3698 6.1656C55.1817 5.64897 54.8099 5.28468 54.2548 5.07273L52.8538 4.5379L51.1279 8.5406L52.5289 9.07539Z" fill="#3A3A3A"/>
<path d="M62.7199 14.815C61.8754 14.9281 61.1115 14.7371 60.4282 14.242C59.7449 13.7468 59.3535 13.1006 59.254 12.3035C59.1545 11.5063 59.3701 10.7835 59.9008 10.1351C60.4349 9.48252 61.1224 9.10174 61.9634 8.99297C62.808 8.87988 63.5719 9.07089 64.2552 9.56601C64.9384 10.0611 65.3299 10.7073 65.4294 11.5045C65.5369 12.3007 65.3236 13.025 64.7894 13.6777C64.2588 14.3261 63.5689 14.7052 62.7199 14.815ZM60.0177 12.2104C60.0942 12.7994 60.3909 13.2813 60.9079 13.6559C61.4249 14.0304 61.9935 14.1757 62.6137 14.0916C63.242 14.0065 63.7582 13.7171 64.1623 13.2233C64.57 12.7252 64.7355 12.1817 64.659 11.5927C64.5905 11.0026 64.2977 10.5202 63.7808 10.1457C63.2638 9.77108 62.6912 9.6263 62.0629 9.71145C61.4427 9.79553 60.9288 10.0866 60.5211 10.5847C60.117 11.0785 59.9492 11.6203 60.0177 12.2104Z" fill="#3A3A3A"/>
<path d="M65.9912 19.0896L69.806 14.4956L70.301 15.1439L67.1346 18.8884L71.9673 17.327L72.442 17.9488L69.3261 21.7594L74.1084 20.1318L74.6032 20.7801L68.7584 22.7147L68.213 22.0003L71.2318 18.2954L66.5365 19.804L65.9912 19.0896Z" fill="#3A3A3A"/>
<path d="M77.6135 28.0547L77.8869 28.7783L72.3561 30.6288L72.1356 30.0452L75.2094 25.8615L71.0771 27.2441L70.8037 26.5204L76.3345 24.6699L76.555 25.2535L73.4891 29.4346L77.6135 28.0547Z" fill="#3A3A3A"/>
</svg>
